<svg xmlns="http://www.w3.org/2000/svg" version="1.1" id="Layer_1" x="0px" y="0px" viewBox="0 0 675.6 452" style="enable-background:new 0 0 675.6 452;"><defs></defs><style type="text/css">
	.st0{fill:#E0E0E0;}
	.st1{fill:#EBEBEB;}
	.st2{fill:#263238;}
	.st3{fill:#455A64;}
	.st4{fill:#FFFFFF;}
	.st5{fill:#0061F2;}
	.st6{opacity:0.4;}
	.st7{opacity:0.3;enable-background:new    ;}
	.st8{fill:#FAFAFA;}
	.st9{opacity:0.2;enable-background:new    ;}
	.st10{fill:#FFBE9D;}
	.st11{fill:#EB996E;}
	.st12{opacity:0.3;}
</style><g id="background-complete--inject-34" transform="matrix(1.584809, 0, 0, 1.584809, -407.997345, 85.325729)" style=""><path class="st0" d="M554.1,98.2c-6.7,1.2-13.2-3.3-14.4-10.1c-0.4-2.1-0.2-4.3,0.6-6.4l24.3-67.2c1.5-4.2,5.1-7.2,9.5-8l0,0
		c4.4-0.8,8.8,0.8,11.6,4.2l46.1,54.6c4.4,5.2,3.7,13.1-1.5,17.5c-1.7,1.4-3.7,2.3-5.8,2.7L554.1,98.2L554.1,98.2z M574.8,10.2
		L574.8,10.2c-3.1,0.5-5.6,2.7-6.6,5.6L543.8,83c-1.6,4.5,0.7,9.5,5.2,11.1c1.4,0.5,3,0.6,4.5,0.4l0,0l70.3-12.6
		c4.7-0.8,7.9-5.4,7-10.1c-0.3-1.5-0.9-2.9-1.9-4.1l-46.1-54.6C580.9,10.8,577.8,9.6,574.8,10.2L574.8,10.2z"></path><path class="st0" d="M580.8,73.1c-0.4-2.5,1.2-4.9,3.7-5.3c0.1,0,0.1,0,0.2,0c2.4-0.7,5,0.8,5.6,3.2c0.7,2.4-0.8,5-3.2,5.6
		c-0.2,0.1-0.5,0.1-0.7,0.1c-2.5,0.5-5-1-5.5-3.5C580.8,73.2,580.8,73.2,580.8,73.1z M574.5,36.4l8.6-1.6l3.5,27.6l-5.8,1
		L574.5,36.4z"></path></g><g id="error-400--inject-34" style="" transform="matrix(1.584809, 0, 0, 1.584809, -175.465805, 2.704636)"><g class="st6"></g><path class="st0" d="M257.9,226c6.6,14.7,13.8,24.3,29.5,37.4c19,15.9,46.3,21.1,70,13.7s45.6-27.3,52.3-51.1"></path><path class="st7" d="M306.7,100.8c-2.8,2.3,1.3,6.9,4,9.3s6.1,5.1,5.7,8.8c-8.9,1.5-18.1,3.2-25.5,8.4c-11,7.7-15.6,21.2-21.4,33.3
		c-3.5,7.4-7.7,14.4-10.9,21.9s-5.4,15.6-4.9,23.7s4.2,16.3,10.9,21c6.7,4.7,16.5,5,22.7-0.2c0.2,2.3,0.4,4.6,0.6,6.9l-2,22.3
		l50.5,3.7l5.8-151.8V96.7C342.3,96.7,312.5,96.2,306.7,100.8z"></path><path class="st2" d="M409.9,183.6c-3.6-2.1-7.8-2.5-11.9-2.4c-4.1,0.2-8.2,0.9-12.2,2.2c-3.4,0.9-6.6,2.3-9.6,4.1l0.4,1.2
		c11.1,2.9,22.9,1.6,33.2-3.7c0.3-0.1,1.1-0.5,1.1-0.8S410.1,183.7,409.9,183.6z"></path><path class="st2" d="M265,186.2c-0.9,1.4-0.4,3.3,0.3,4.8c0.8,1.4,1.9,2.6,3.2,3.6c3.8,3.1,8.4,5.6,13.4,5.9s10.2-2.1,12.4-6.6
		c0.5-1.1,1.5-2.8,1.5-2.8c-1.2-0.7-2.5-1.4-3.8-1.9c-4.5-1.7-8.6-3.7-13.3-4.5C274,183.9,269.3,184.4,265,186.2"></path><path class="st3" d="M393,133c-2.7-3-36.2-15.9-36.2-15.9l-31.7,2.2c0,0-15.5,4-27.1,8.2c-7.1,2.6-12.8,8-15.6,15L265,186.2
		c0,0,2.6-1.5,10-1.4c7.7,0.1,20.7,6.2,20.7,6.2l-8.3,65.7c25.6,17.2,56.3,18.8,86.1,3.8l0.2-9.4l3.2-62.8
		c3.3-4.5,21.4-10.4,33.9-4.2C410.9,184.3,398.7,139.2,393,133z"></path><path class="st2" d="M374,148.4c0-0.3,0-0.5,0.1-0.8c0.2-0.7,0.4-1.4,0.6-2.1c0.9-2.2,2.1-4.3,3.7-6.1c1.6-1.8,3.5-3.3,5.6-4.4
		c0.6-0.3,1.3-0.6,2-0.9c0.2-0.1,0.5-0.2,0.8-0.2c0,0.1-1,0.5-2.6,1.4c-4.1,2.4-7.3,6-9.2,10.4C374.4,147.3,374.1,148.4,374,148.4z"></path><path class="st2" d="M374.1,187.8c-0.1,0-0.2-8.1-0.3-18.2s0-18.2,0.2-18.2s0.2,8.2,0.3,18.2S374.2,187.8,374.1,187.8z"></path><path class="st2" d="M299.8,152.4c0.1,0-0.7,8.6-1.8,19.1s-2.2,19-2.3,19s0.7-8.6,1.8-19.1S299.6,152.4,299.8,152.4z"></path><path class="st2" d="M361.2,118.8c0,0.2,0,0.4,0,0.6c0,0.6,0,1.2-0.1,1.8c-0.2,2.2-0.8,4.4-1.8,6.4c-1.4,3-3.5,5.7-6.1,7.7
		c-6.7,5-15.8,5.5-23,1.1c-2.8-1.8-5.2-4.2-6.9-7.1c-1.1-1.9-1.9-4-2.4-6.2c-0.1-0.6-0.2-1.2-0.2-1.8c0-0.2,0-0.4,0-0.6
		c0.1,0,0.1,0.9,0.5,2.4c0.5,2.2,1.3,4.2,2.5,6.1c1.7,2.8,4,5.2,6.8,6.9c7,4.2,15.9,3.8,22.5-1.1c2.6-2,4.7-4.6,6.1-7.5
		c0.9-2,1.6-4.1,1.9-6.3C361.1,119.7,361.1,118.8,361.2,118.8z"></path><path class="st8" d="M296.2,176.5c-0.3-0.1-0.6-0.2-1-0.3c-0.6-0.2-1.5-0.6-2.5-1c-5.6-2.1-11.4-3.6-17.4-4.3
		c-1.1-0.1-2.1-0.2-2.7-0.3c-0.3,0-0.7-0.1-1-0.1c0.3,0,0.7,0,1,0c0.6,0,1.6,0.1,2.7,0.2c6,0.6,11.9,2,17.4,4.3
		c1.1,0.4,1.9,0.8,2.5,1.1C295.6,176.1,295.9,176.3,296.2,176.5z"></path><path class="st8" d="M373.6,173c0,0.1-17-0.3-37.9-1s-37.9-1.3-37.9-1.4s17,0.3,37.9,1S373.6,172.9,373.6,173z"></path><path class="st8" d="M403.6,161.3c-0.4,0-0.8,0-1.2,0c-0.8,0-1.9-0.1-3.2-0.1c-7.1,0-14.1,1.6-20.6,4.5c-1.2,0.6-2.2,1-2.9,1.4
		c-0.3,0.2-0.7,0.4-1.1,0.5c0.3-0.2,0.6-0.5,1-0.6c0.6-0.4,1.6-0.9,2.9-1.5c3.2-1.5,6.6-2.7,10.1-3.5c3.5-0.7,7.1-1.1,10.6-1
		c1.1,0,2.2,0.1,3.2,0.2C402.9,161.2,403.2,161.2,403.6,161.3z"></path><path class="st8" d="M299.6,149.1c0,0.1-0.9-0.6-2.4-1.5c-1.9-1.2-3.9-2.1-6-2.8c-2.1-0.7-4.3-1.1-6.5-1.4
		c-1.7-0.1-2.8-0.1-2.8-0.2c0.2-0.1,0.5-0.1,0.8-0.1c0.7,0,1.4,0,2,0c2.3,0.1,4.5,0.5,6.6,1.2c2.1,0.7,4.2,1.7,6.1,3
		c0.6,0.4,1.1,0.8,1.6,1.2C299.3,148.7,299.5,148.9,299.6,149.1z"></path><path class="st8" d="M368.3,147.6c-0.2,0-0.4,0-0.6,0l-1.9-0.1L359,147c-5.7-0.4-13.7-0.9-22.5-1.2s-16.7-0.5-22.5-0.5l-6.8-0.1
		h-1.9c-0.2,0-0.4,0-0.6,0c0.2,0,0.4,0,0.6,0l1.9-0.1c1.6-0.1,3.9-0.1,6.8-0.1c5.8,0,13.7,0,22.5,0.4s16.7,0.9,22.5,1.4
		c2.9,0.2,5.2,0.5,6.8,0.6l1.9,0.2C367.9,147.6,368.1,147.6,368.3,147.6z"></path><path class="st8" d="M320,126.8c-2.5,0.1-5,0-7.5-0.3c-2.5-0.1-5-0.3-7.5-0.7c2.5-0.1,5,0,7.5,0.3C315,126.2,317.5,126.4,320,126.8
		z"></path><path class="st8" d="M379.7,125.9c0,0.1-4.4,0.2-9.7,0.2s-9.7-0.1-9.7-0.2s4.4-0.2,9.7-0.2S379.7,125.8,379.7,125.9z"></path><path class="st8" d="M374.7,205c0,0-0.1,0-0.2,0h-0.6h-2.3c-2,0-4.9,0-8.5-0.1c-7.2-0.1-17.2-0.5-28.2-1.2s-20.9-1.6-28.1-2.4
		c-3.6-0.4-6.5-0.8-8.5-1l-2.3-0.3l-0.6-0.1l-0.2-0.1h0.2l0.6,0.1l2.3,0.2l8.5,0.9c7.2,0.7,17.1,1.6,28.1,2.3s21,1.1,28.2,1.3
		l8.5,0.2l2.3,0.1h0.6L374.7,205z"></path><path class="st8" d="M375.3,232.9l-0.2,0.1l-0.6,0.1l-2.4,0.5c-1.1,0.2-2.4,0.5-3.9,0.7s-3.2,0.5-5.1,0.8s-4,0.5-6.2,0.7
		s-4.7,0.4-7.2,0.5c-5.1,0.3-10.7,0.4-16.5,0.2s-11.4-0.7-16.4-1.4c-2.5-0.4-4.9-0.7-7.1-1.1s-4.3-0.8-6.2-1.2s-3.6-0.8-5.1-1.1
		s-2.8-0.7-3.8-1l-2.4-0.7l-0.6-0.2c-0.1,0-0.1,0-0.2-0.1h0.2l0.6,0.1l2.4,0.6c1,0.3,2.3,0.6,3.8,0.9s3.2,0.7,5.1,1.1s4,0.8,6.2,1.1
		s4.6,0.7,7.1,1c5,0.6,10.6,1.1,16.4,1.3s11.4,0.1,16.5-0.1c2.5-0.2,4.9-0.3,7.2-0.5s4.3-0.4,6.2-0.6s3.6-0.5,5.1-0.7
		s2.8-0.4,3.9-0.6l2.4-0.4l0.6-0.1C375.2,232.9,375.3,232.9,375.3,232.9z"></path><path class="st8" d="M373.6,256.8l-0.2,0.1l-0.6,0.2l-2.4,0.7c-0.5,0.1-1.1,0.3-1.8,0.5l-2.1,0.5l-2.5,0.5
		c-0.9,0.2-1.8,0.3-2.8,0.5s-2,0.3-3,0.5l-3.3,0.4l-1.8,0.2l-1.8,0.1l-3.8,0.3c-5.7,0.3-11.3,0.2-17-0.1c-6-0.4-11.7-1.1-16.9-2
		l-3.7-0.7l-1.8-0.4l-1.7-0.4l-3.3-0.8l-3-0.8c-4.1-1.1-8.1-2.5-12-4.2c0.1,0,0.2,0,0.2,0.1l0.6,0.2l2.4,0.9
		c0.5,0.2,1.1,0.4,1.7,0.6l2.1,0.6l2.4,0.8c0.9,0.3,1.8,0.5,2.7,0.8l3,0.8l3.3,0.8l1.7,0.4l1.8,0.3l3.7,0.7c5.1,0.8,10.8,1.5,16.8,2
		c5.6,0.3,11.3,0.4,16.9,0.1l3.8-0.3l1.8-0.1l1.8-0.2l3.3-0.4c1.1-0.1,2.1-0.3,3-0.5s1.9-0.3,2.8-0.5l2.5-0.5l2.1-0.4
		c0.6-0.1,1.2-0.3,1.8-0.5l2.5-0.6l0.6-0.1L373.6,256.8z"></path><path class="st9" d="M291.5,223.4c14.4-2.8,27.8-9.3,39-18.8c2-1.7,4.1-3.5,6.7-3.6c2.9-0.1,5.3,2.1,7.5,4
		c8.8,7.5,19.4,12.6,30.8,14.8c1.6-2.6,0.9-6.1-0.9-8.5s-4.5-4-7.1-5.6l-24.6-14.3c-1.9-1.1-3.9-2.2-6-1.9c-1.4,0.3-2.7,1-3.8,1.9
		l-38.4,27c-1.7,1.2-3.6,3.2-2.5,5"></path><path class="st10" d="M267.4,185.7c0,0-5.8,17.1-6.6,20.1c-1.6,5.7-0.1,20.7,13.8,20.7c16.9,0,78.6-39.8,78.6-39.8l-12.6-7.6
		l-50,16.3l1.9-5.6C292.6,189.8,278.7,182.6,267.4,185.7z"></path><path class="st10" d="M340.9,179.7c0,0,16.5-21.4,16.5-21.7s9.8-8.7,9.8-8.7s2.2,0.1,2,1.5s-3.7,6.4-3.7,6.4
		c-0.4,1.1-1,2.2-1.7,3.1c-1,1.4-5.8,10-5.8,10s4.6-4.4,5.5-4c0.9,0.3,1.4,1.3,1.1,2.3c0,0.1,0,0.1-0.1,0.2
		c-0.5,1.4-4.8,5.7-4.8,5.7s-2.5,8.9-5.4,11.5l-7.1,4.7L340.9,179.7z"></path><path class="st11" d="M356.2,174c0.1,0.9-0.1,1.9-0.7,2.6c-0.6,0.8-1.2,1.6-1.8,2.4c-0.7,0.9-1.3,2-1.7,3.1
		c-0.4,1.2-0.7,2.4-1.1,3.5c-0.4,1-0.9,1.8-1.6,2.6c-0.5,0.5-1,0.9-1.7,1.2c-0.2,0.1-0.5,0.2-0.7,0.2c0.8-0.4,1.6-0.9,2.2-1.6
		c0.6-0.8,1.1-1.6,1.4-2.5c0.4-1,0.7-2.2,1.1-3.5c0.4-1.2,1-2.3,1.8-3.3c0.7-0.9,1.4-1.6,1.9-2.3C355.8,175.7,356.1,174.9,356.2,174
		z"></path><path class="st11" d="M365.5,157.7c0,0-0.2-0.2-0.5-0.4c-0.5-0.3-1.1-0.4-1.7-0.4c-0.9,0.2-1.7,0.6-2.3,1.3
		c-0.7,0.8-1.4,1.7-2.1,2.7c-1.5,1.9-2.9,3.7-3.9,4.9c-0.5,0.7-1.1,1.4-1.7,2c0.4-0.8,0.9-1.5,1.5-2.1c1-1.3,2.3-3.1,3.8-5
		c0.8-1,1.4-1.9,2.2-2.7c0.7-0.7,1.6-1.2,2.5-1.3c0.7-0.1,1.3,0.1,1.9,0.5C365.4,157.4,365.5,157.7,365.5,157.7z"></path><path class="st11" d="M356.4,179c-0.1-0.1,0.5-2,1-4.4s0.6-4.4,0.7-4.4c0.2,1.5,0.1,3-0.3,4.5C357.6,176.2,357.1,177.7,356.4,179z"></path><path class="st10" d="M404.3,182.2c0,0,6.1,17.3,6.9,20.3c1.3,4.6,0.1,20.7-13.8,20.7c-16.9,0-78.6-39.8-78.6-39.8l11.6-7.9
		l51,16.6l-2-5.8C387,182.2,395.8,180.8,404.3,182.2z"></path><path class="st10" d="M331.1,176.3c0,0-16.5-21.4-16.5-21.7s-9.8-8.6-9.8-8.6s-2.2,0.1-2,1.5s3.7,6.4,3.7,6.4
		c0.4,1.1,1,2.2,1.7,3.1c1,1.4,5.8,9.9,5.8,9.9s-4.6-4.4-5.5-3.9c-0.9,0.3-1.4,1.4-1.1,2.3c0,0.1,0,0.1,0.1,0.2
		c0.5,1.4,4.8,5.7,4.8,5.7s2.5,8.9,5.4,11.5l7,4.7L331.1,176.3z"></path><path class="st11" d="M315.8,170.6c0.1,0.9,0.5,1.7,1,2.5c0.5,0.7,1.2,1.4,1.9,2.3c0.8,1,1.4,2.1,1.8,3.2c0.4,1.2,0.7,2.4,1.1,3.5
		c0.3,0.9,0.8,1.8,1.4,2.5c0.6,0.7,1.3,1.2,2.2,1.6c-0.3,0-0.5-0.1-0.7-0.2c-0.6-0.3-1.2-0.7-1.7-1.2c-0.7-0.8-1.2-1.6-1.6-2.6
		c-0.4-1.1-0.7-2.3-1.1-3.5c-0.4-1.1-0.9-2.2-1.7-3.1c-0.7-0.8-1.3-1.5-1.8-2.4C315.9,172.5,315.7,171.6,315.8,170.6z"></path><path class="st11" d="M306.5,154.4c0,0,0.1-0.3,0.4-0.6c0.5-0.4,1.2-0.6,1.9-0.5c1,0.1,1.9,0.6,2.5,1.4c0.8,0.9,1.5,1.8,2.2,2.7
		c1.5,1.9,2.8,3.7,3.8,5c0.6,0.7,1,1.4,1.5,2.2c-0.6-0.6-1.2-1.3-1.7-2c-1-1.2-2.4-3-3.9-4.9c-0.8-1-1.4-1.9-2.1-2.7
		c-0.6-0.7-1.4-1.2-2.3-1.3c-0.6-0.1-1.2,0-1.7,0.3C306.7,154.2,306.6,154.4,306.5,154.4z"></path><path class="st11" d="M315.6,175.7c-1.3-2.7-1.9-5.8-1.7-8.8c0.1,0,0.2,2,0.7,4.4S315.8,175.6,315.6,175.7z"></path><path class="st11" d="M345.5,199.6c-0.1,0.1-6.3-3.6-14-8.3s-13.8-8.6-13.8-8.7s6.3,3.6,14,8.3S345.6,199.5,345.5,199.6z"></path><path class="st11" d="M382.4,192.5c-0.2,0-0.4-0.1-0.5-0.1l-1.5-0.4l-5.6-1.7c-4.7-1.5-11.2-3.6-18.4-5.9s-13.7-4.5-18.4-6.1
		c-2.3-0.8-4.2-1.5-5.5-2l-1.5-0.6c-0.2-0.1-0.4-0.1-0.5-0.2c0.2,0,0.4,0.1,0.5,0.1l1.5,0.5l5.6,1.8l18.4,6l18.4,6l5.6,1.9l1.5,0.5
		C382.1,192.3,382.3,192.4,382.4,192.5z"></path><path class="st10" d="M335.2,43.6L335.2,43.6c-13,0-23.6,10.3-24,23.2c-0.4,11.6-0.7,24.3-0.3,30.5c0.8,12.8,13.7,14.2,13.7,14.2
		v7.8c0,9.1,7.4,16.6,16.5,16.6c0,0,0,0,0,0l0,0c9,0,16.4-7.2,16.5-16.2l1-51.4c0.5-13.1-9.7-24.1-22.8-24.6
		C335.6,43.6,335.4,43.6,335.2,43.6z"></path><path class="st11" d="M324.5,111.5c5.9-0.2,11.7-2.1,16.5-5.5c0,0-3.6,9.5-16.5,9V111.5z"></path><path class="st2" d="M315.1,74.2c0.2,0.2,1.6-0.8,3.6-0.8s3.4,1,3.6,0.7s-0.1-0.5-0.8-1c-0.9-0.6-1.9-0.9-2.9-0.9
		c-1,0-2,0.3-2.9,0.9C315.2,73.6,315,74.1,315.1,74.2z"></path><path class="st2" d="M334.6,73.8c0.2,0.2,1.6-0.8,3.6-0.9s3.4,0.9,3.6,0.7s-0.1-0.5-0.8-1c-0.9-0.6-1.9-0.9-2.9-0.8
		c-1,0-2,0.4-2.8,1C334.6,73.3,334.5,73.7,334.6,73.8z"></path><path class="st2" d="M327.2,87.5c-1.1-0.3-2.1-0.4-3.2-0.4c-0.5,0-1-0.1-1.1-0.4c-0.1-0.5,0-1,0.3-1.5c0.4-1.2,0.9-2.5,1.3-3.9
		c1.8-5.6,3.1-10.1,2.9-10.2s-1.9,4.4-3.7,9.9c-0.4,1.4-0.9,2.7-1.2,3.9c-0.3,0.6-0.3,1.3-0.2,2c0.2,0.3,0.5,0.6,0.9,0.7
		c0.3,0.1,0.6,0.1,0.9,0.1C325,87.7,326.1,87.6,327.2,87.5z"></path><path class="st2" d="M333.3,69.3c0.3,0.5,2.2-0.2,4.5-0.4s4.3,0,4.5-0.6c0.1-0.2-0.4-0.7-1.2-1c-2.3-0.8-4.8-0.5-6.8,0.8
		C333.5,68.5,333.2,69,333.3,69.3z"></path><path class="st2" d="M314.4,69.2c0.2,0.5,1.8,0.4,3.5,0.9s3.1,1.1,3.5,0.7c0.2-0.2,0.1-0.7-0.4-1.2c-1.5-1.5-3.7-2-5.7-1.3
		C314.6,68.5,314.3,68.9,314.4,69.2z"></path><path class="st2" d="M334.7,91.7c-0.1,0.1-0.5-0.2-1.3-0.4c-1-0.3-2-0.3-3,0c-1,0.3-1.8,0.9-2.5,1.6c-0.5,0.6-0.8,1.1-0.9,1
		s-0.1-0.6,0.4-1.4c0.6-1,1.6-1.8,2.8-2.1c1.2-0.3,2.4-0.2,3.5,0.3C334.5,91.1,334.8,91.6,334.7,91.7z"></path><path class="st2" d="M316.9,75.9c0,1,0.8,1.8,1.8,1.7c1,0,1.8-0.7,1.8-1.7c0,0,0,0,0,0c0-1-0.9-1.8-1.9-1.8
		C317.7,74.2,316.9,74.9,316.9,75.9C316.9,75.9,316.9,75.9,316.9,75.9z"></path><path class="st2" d="M336.4,75.4c0,1,0.8,1.8,1.8,1.7c1,0,1.8-0.7,1.8-1.7c0,0,0,0,0-0.1c0-1-0.8-1.8-1.8-1.7
		C337.2,73.6,336.4,74.4,336.4,75.4C336.4,75.4,336.4,75.4,336.4,75.4z"></path><path class="st2" d="M366.9,67.6c0.6-0.7,0.9-1.6,0.8-2.6c-0.3-1-1.4-1.6-1.8-2.6s0-2.1,0-3.2c-0.2-1.5-0.9-2.8-2.1-3.8
		c-0.1-0.1-0.2-0.2-0.4-0.3c-0.9-2-2.1-3.9-3.4-5.7l3.3,3.1c1.2-3.2-3.6-8.9-7.5-10.6c-2.7-1-5.6-1-8.3,0c0,0-9.8-7.4-19.4-5
		c-5.9,1.5-11.8,4-15.8,9.9c-1.6,0.9-2.9,2.4-3.4,4.2c-0.7,2.2-0.9,4.6-2,6.6c-0.8,1.5-2.1,3-1.7,4.6c0.3,1.3,1.8,2.2,2.2,3.5
		s-0.2,2.7-0.1,4.1c0.1,2.2,1.7,4,3.8,4.4c0.6-3.5,1-7,1.2-10.5c1.7,1.1,5.2,2.2,12.1-0.2l8.9-5c0,0-4.4,3.8-2.2,4.4
		c1.8,0.6,11.4-4.6,14.2-6.2c0.8-0.5,1.8-0.7,2.8-0.6c1.3,0.1,2.8,0.9,3.1,3.4c0.3,2.2-1,22.6,0.9,22.6c1.1,0,5.1-1.8,5.8-2.2v9.9
		c0.4-0.2,0.7-0.5,0.9-0.9l4.3-6.1c1-1.4,1.9-2.8,2.6-4.4c0.7-1.6,0.9-3.3,0.5-5c-0.3-1.1-1-2.2-0.8-3.4
		C365.8,69.1,366.3,68.3,366.9,67.6z"></path><path class="st2" d="M342.9,35.8c0.1-0.3,0.8-0.3,1.7,0.1c2.3,1.2,3.9,3.5,4.1,6.1c0,1-0.2,1.6-0.5,1.6c-0.6,0-1.2-2-2.6-4
		S342.6,36.4,342.9,35.8z"></path><path class="st3" d="M310.7,50.2c0.2,0.5,0.6,0.9,1,1.3c1.2,0.9,2.8,1.1,4.2,0.6c1-0.3,1.9-0.8,2.8-1.4c1-0.6,1.9-1.3,3.1-1.9
		c1.2-0.7,2.6-1,4-0.9c1.4,0.3,2.8,0.7,4.1,1.4c1.2,0.7,2.6,1.2,4,1.3c1.3,0.1,2.6-0.3,3.6-1c2.1-1.4,3.5-3.2,5.1-4.4
		c1.2-1,2.7-1.6,4.2-1.8c0.4,0,0.8,0,1.2,0.1c0.3,0.1,0.4,0.2,0.4,0.2c-0.5-0.1-1.1-0.2-1.6-0.1c-1.5,0.2-2.9,0.8-4,1.8
		c-1.5,1.1-2.9,3-5.1,4.5c-1.1,0.8-2.5,1.2-3.9,1.1c-1.4-0.2-2.8-0.7-4.1-1.4c-1.2-0.7-2.6-1.2-4-1.4c-1.3-0.1-2.6,0.2-3.7,0.8
		c-1.1,0.6-2.1,1.3-3.1,1.9c-0.9,0.6-1.9,1-2.9,1.4c-1.5,0.5-3.2,0.2-4.4-0.8c-0.3-0.3-0.6-0.6-0.8-1
		C310.8,50.5,310.7,50.3,310.7,50.2z"></path><path class="st3" d="M365.5,59.7c0,0,0,0.1-0.1,0.2c-0.1,0.2-0.3,0.4-0.5,0.6c-0.7,0.6-1.6,0.9-2.5,0.9c-1.3,0-2.6-0.5-3.6-1.4
		c-1.2-1-2.3-2.2-3.3-3.4c-1.8-2.2-3.3-4.6-4.6-7.2c-0.5-1-0.8-1.8-1-2.4c-0.1-0.3-0.2-0.6-0.3-0.9c0.1,0,0.6,1.2,1.6,3.2
		c1.3,2.5,2.9,4.9,4.6,7.1c0.9,1.2,2,2.3,3.2,3.4c0.9,0.8,2.1,1.3,3.4,1.4c0.8,0,1.7-0.2,2.4-0.7C365.1,60.1,365.3,59.9,365.5,59.7z
		"></path><path class="st3" d="M365.6,71.4c0,0-0.2,0.1-0.6,0.3c-0.6,0.2-1.2,0.3-1.8,0.3c-2,0-4-0.6-5.6-1.8c-1.6-1.1-3.1-2.5-4.3-4.1
		c-0.5-0.6-1-1.3-1.4-2c0.6,0.5,1.2,1.1,1.7,1.8c1.3,1.5,2.7,2.8,4.3,3.9c1.6,1.1,3.5,1.7,5.4,1.8C364.1,71.6,364.8,71.5,365.6,71.4
		z"></path><path class="st10" d="M354.6,74.4c0.2-0.1,8.7-3,8.8,5.8s-8.7,7.1-8.7,6.8S354.6,74.4,354.6,74.4z"></path><path class="st11" d="M357.3,83.7c0,0,0.1,0.1,0.4,0.2c0.4,0.1,0.8,0.1,1.1,0c0.9-0.3,1.7-1.8,1.7-3.4c0-0.8-0.1-1.5-0.5-2.2
		c-0.2-0.6-0.6-1-1.2-1.2c-0.4-0.1-0.7,0.1-0.9,0.4c-0.1,0.2-0.1,0.4-0.1,0.4s-0.2-0.1-0.1-0.5c0-0.2,0.2-0.4,0.3-0.6
		c0.2-0.2,0.5-0.3,0.8-0.2c0.7,0.1,1.3,0.6,1.6,1.3c0.4,0.8,0.6,1.6,0.6,2.4c0,1.8-0.9,3.4-2.2,3.8c-0.5,0.1-1,0.1-1.4-0.2
		C357.3,83.9,357.3,83.7,357.3,83.7z"></path></g><g id="speech-bubble--inject-34" style="" transform="matrix(1.584809, 0, 0, 1.584809, -175.465805, 2.704636)"><path class="st8" d="M294.1,87.3l-9.7-17.2c13.3-21.6,6.6-50-15.1-63.3s-50-6.6-63.3,15.1s-6.6,50,15.1,63.3
		c16.3,10,37.1,8.9,52.3-2.8l0,0L294.1,87.3z"></path><path class="st2" d="M294.1,87.3l-20.8-4.8c-0.1,0-0.1-0.1-0.1-0.1c0,0,0,0,0,0l0,0l0,0l0.2,0.2c-2.9,2.3-6.1,4.2-9.5,5.7
		c-4,1.8-8.2,3-12.6,3.6c-2.4,0.3-4.8,0.5-7.3,0.4c-1.2-0.1-2.5-0.1-3.8-0.2l-3.9-0.6c-11.6-2.3-21.8-8.9-28.7-18.4
		c-3.8-5.3-6.5-11.3-7.8-17.7c-1.3-6.8-1.1-13.7,0.5-20.4c1.7-7,5.1-13.5,9.8-18.9l1.9-2.1c0.6-0.7,1.4-1.3,2-1.9
		c0.7-0.6,1.4-1.2,2.1-1.8l2.2-1.7c0.7-0.6,1.5-1.1,2.3-1.5l2.3-1.4l2.5-1.2c0.8-0.4,1.6-0.8,2.5-1.1c6.5-2.6,13.5-3.7,20.5-3.2
		c6.6,0.5,13.1,2.4,18.9,5.6c10.4,5.8,18.2,15.4,21.8,26.8c1.4,4.8,2.1,9.9,2,14.9c-0.1,4.4-0.8,8.8-2.2,12.9
		c-1.1,3.5-2.7,6.8-4.6,9.9v-0.1C290.7,81.2,293.7,86.6,294.1,87.3l-9.8-17.1c0,0,0-0.1,0-0.1c1.9-3.1,3.4-6.4,4.5-9.8
		c1.3-4.2,2.1-8.5,2.2-12.9c0.1-5-0.6-10-2-14.8c-3.6-11.3-11.3-20.8-21.7-26.5c-5.8-3.2-12.1-5.1-18.7-5.5
		c-6.9-0.5-13.9,0.6-20.4,3.1c-0.8,0.3-1.6,0.7-2.4,1.1L223.4,6l-2.3,1.4c-0.8,0.4-1.5,0.9-2.3,1.5l-2.2,1.6
		c-0.7,0.6-1.4,1.2-2.1,1.8c-0.7,0.6-1.4,1.2-2,1.9l-1.9,2c-4.7,5.4-8,11.8-9.7,18.7c-1.7,6.6-1.9,13.5-0.6,20.2
		c1.3,6.3,3.9,12.3,7.7,17.6c6.8,9.5,16.9,16,28.4,18.3l3.8,0.6c1.3,0.1,2.5,0.1,3.8,0.2c2.4,0.1,4.8,0,7.2-0.3
		c8-1.1,15.6-4.2,21.9-9.1c0.1,0,0.1,0,0.2,0c0,0,0,0.1,0,0.2l0,0l-0.1-0.2L294.1,87.3z"></path><rect x="227" y="42.5" transform="matrix(0.7161 -0.698 0.698 0.7161 37.0778 183.9609)" class="st5" width="35.4" height="7.9"></rect><rect x="240.7" y="28.7" transform="matrix(0.7161 -0.698 0.698 0.7161 37.0731 183.9439)" class="st5" width="7.9" height="35.4"></rect></g></svg>
